<?xml version="1.0" encoding="UTF-8" standalone="no"?>
<svg
   viewBox="0 0 16 16"
   version="1.1"
   id="svg26032"
   sodipodi:docname="icon-mastodon.svg"
   inkscape:version="1.2.1 (9c6d41e, 2022-07-14)"
   xmlns:inkscape="http://www.inkscape.org/namespaces/inkscape"
   xmlns:sodipodi="http://sodipodi.sourceforge.net/DTD/sodipodi-0.dtd"
   xmlns="http://www.w3.org/2000/svg"
   xmlns:svg="http://www.w3.org/2000/svg">
  <defs
     id="defs26036" />
  <path
     id="path26028"
     d="M 7.4779002,0 C 5.5602316,0.01567819 3.715579,0.22333883 2.6405725,0.71704013 c 0,0 -2.13206102,0.95370217 -2.13206102,4.20765377 0,0.745118 -0.0144827,1.6360343 0.009115,2.5808474 0.0774212,3.1821877 0.58337051,6.3183867 3.52553621,7.0971227 1.3565674,0.359063 2.5213363,0.43429 3.4593608,0.38273 1.7010832,-0.09431 2.6560191,-0.607063 2.6560191,-0.607063 l -0.05611,-1.234252 c 0,0 -1.2156316,0.383272 -2.5808466,0.33656 -1.3526074,-0.04639 -2.7805605,-0.145834 -2.9993278,-1.80651 -0.020204,-0.145872 -0.030306,-0.301903 -0.030306,-0.465715 0,0 1.3278358,0.324572 3.0105743,0.40167 1.0289413,0.0472 1.9938276,-0.06028 2.9738761,-0.177218 1.879442,-0.224424 3.515901,-1.382448 3.721576,-2.4405647 0.324069,-1.6668175 0.297376,-4.0676074 0.297376,-4.0676074 0,-3.2539516 -2.131942,-4.20765377 -2.131942,-4.20765377 C 11.288484,0.22333883 9.4426852,0.01567819 7.5250164,0 Z M 5.3076021,2.5424916 c 0.7987795,0 1.4035953,0.3070145 1.8035506,0.9211307 L 7.5000383,4.115434 7.8889227,3.4636223 C 8.2887977,2.8495061 8.8936133,2.5424916 9.692474,2.5424916 c 0.690325,0 1.246551,0.2426764 1.671317,0.7160932 0.411754,0.4734166 0.61677,1.1133733 0.61677,1.9186181 V 9.1171951 H 10.419576 V 5.2929806 c 0,-0.8061338 -0.339166,-1.2153103 -1.017612,-1.2153103 -0.7501288,0 -1.12605,0.485326 -1.12605,1.4450898 V 7.6159913 H 6.7241617 V 5.5227601 c 0,-0.9597638 -0.3760399,-1.4450898 -1.1261686,-1.4450898 -0.6784454,0 -1.0176121,0.4091765 -1.0176121,1.2153103 V 9.1171951 H 3.0193951 V 5.1772029 c 0,-0.8052448 0.2050535,-1.4452015 0.6168888,-1.9186181 C 4.060969,2.785168 4.6171959,2.5424916 5.3076021,2.5424916 Z"
     style="stroke-width:0.0646525" />
</svg>
